<svg version="1.2" xmlns="http://www.w3.org/2000/svg" viewBox="0 0 200 70" width="200" height="70">
	<title>logo</title>
	<style>
		.s0 { fill: #ffffff } 
	</style>
	<path id="fabricio" class="s0" aria-label="fabricio"  d="m11.4 12.4l-8.4 47.6h4.6l3.8-21.5h9.2l0.8-4.5h-9.2l3-17h11.4l0.8-4.5zm30.3 0l-16.6 47.6h4.5l3.3-9.5h9.1v9.5h4.5l0.2-47.6zm-7.2 33.5l7.5-21.3-0.1 21.3zm38.3-33.5h-8.9l-8.3 47.6h8.8c4.2 0 8.2-3.4 9-7.6l1.9-10.9c0.3-2.1-0.2-4-1.2-5.3 1.6-1.4 2.7-3.3 3.1-5.4l1.9-10.8c0.7-4.2-2.1-7.6-6.3-7.6zm-0.7 4.5c1.7 0 2.8 1.4 2.6 3.1l-1.9 10.8c-0.3 1.7-1.9 3.1-3.6 3.1h-4.3l3-17zm-3.2 35.4c-0.2 1.7-1.9 3-3.6 3h-4.2l2.9-16.9h4.3c1.7 0 2.9 1.4 2.6 3.1zm29.3-39.9h-8.8l-8.4 47.6h4.6l2.7-15.6 4.1 15.6h5.1l-4.3-16.2c4-0.3 7.7-3.6 8.4-7.7l2.9-16.2c0.7-4.2-2.1-7.6-6.3-7.6zm-1.1 23.7c-0.3 1.7-1.9 3.1-3.6 3.1h-4.3l3.9-22.3h4.3c1.7 0 2.9 1.3 2.6 3zm9.3 23.9h4.6l8.3-47.6h-4.5zm31.7-47.6h-1.2c-4.2 0-8.2 3.4-9 7.6l-5.7 32.3c-0.7 4.2 2.1 7.6 6.3 7.6h1.2c4.2 0 8.2-3.4 9-7.6l0.9-5.4h-4.5l-1 5.4c-0.3 1.7-1.9 3.1-3.6 3.1h-1.2c-1.7 0-2.9-1.4-2.6-3.1l5.7-32.3c0.3-1.7 1.9-3 3.6-3h1.2c1.7 0 2.9 1.3 2.6 3l-0.9 5.5h4.5l1-5.5c0.7-4.2-2.1-7.6-6.3-7.6zm8.2 47.6h4.5l8.4-47.6h-4.6zm31.8-47.6h-1.2c-4.2 0-8.2 3.4-9 7.6l-5.7 32.3c-0.8 4.2 2 7.6 6.2 7.6h1.3c4.2 0 8.2-3.4 8.9-7.6l5.8-32.3c0.7-4.2-2.1-7.6-6.3-7.6zm-4 40c-0.3 1.7-1.9 3-3.6 3h-1.2c-1.7 0-2.9-1.3-2.6-3l5.7-32.3c0.3-1.7 1.9-3.1 3.6-3.1h1.2c1.7 0 2.9 1.4 2.6 3.1z"/>
	<path id="_a_fabricio copy" class="s0" aria-label="fabricio"  d="m11.4 12.4l-8.4 47.6h4.6l3.8-21.5h9.2l0.8-4.5h-9.2l3-17h11.4l0.8-4.5zm30.3 0l-16.6 47.6h4.5l3.3-9.5h9.1v9.5h4.5l0.2-47.6zm-7.2 33.5l7.5-21.3-0.1 21.3zm38.3-33.5h-8.9l-8.3 47.6h8.8c4.2 0 8.2-3.4 9-7.6l1.9-10.9c0.3-2.1-0.2-4-1.2-5.3 1.6-1.4 2.7-3.3 3.1-5.4l1.9-10.8c0.7-4.2-2.1-7.6-6.3-7.6zm-0.7 4.5c1.7 0 2.8 1.4 2.6 3.1l-1.9 10.8c-0.3 1.7-1.9 3.1-3.6 3.1h-4.3l3-17zm-3.2 35.4c-0.2 1.7-1.9 3-3.6 3h-4.2l2.9-16.9h4.3c1.7 0 2.9 1.4 2.6 3.1zm29.3-39.9h-8.8l-8.4 47.6h4.6l2.7-15.6 4.1 15.6h5.1l-4.3-16.2c4-0.3 7.7-3.6 8.4-7.7l2.9-16.2c0.7-4.2-2.1-7.6-6.3-7.6zm-1.1 23.7c-0.3 1.7-1.9 3.1-3.6 3.1h-4.3l3.9-22.3h4.3c1.7 0 2.9 1.3 2.6 3zm9.3 23.9h4.6l8.3-47.6h-4.5zm31.7-47.6h-1.2c-4.2 0-8.2 3.4-9 7.6l-5.7 32.3c-0.7 4.2 2.1 7.6 6.3 7.6h1.2c4.2 0 8.2-3.4 9-7.6l0.9-5.4h-4.5l-1 5.4c-0.3 1.7-1.9 3.1-3.6 3.1h-1.2c-1.7 0-2.9-1.4-2.6-3.1l5.7-32.3c0.3-1.7 1.9-3 3.6-3h1.2c1.7 0 2.9 1.3 2.6 3l-0.9 5.5h4.5l1-5.5c0.7-4.2-2.1-7.6-6.3-7.6zm8.2 47.6h4.5l8.4-47.6h-4.6zm31.8-47.6h-1.2c-4.2 0-8.2 3.4-9 7.6l-5.7 32.3c-0.8 4.2 2 7.6 6.2 7.6h1.3c4.2 0 8.2-3.4 8.9-7.6l5.8-32.3c0.7-4.2-2.1-7.6-6.3-7.6zm-4 40c-0.3 1.7-1.9 3-3.6 3h-1.2c-1.7 0-2.9-1.3-2.6-3l5.7-32.3c0.3-1.7 1.9-3.1 3.6-3.1h1.2c1.7 0 2.9 1.4 2.6 3.1z"/>
</svg>